<?xml version="1.0" standalone="no"?>
<!DOCTYPE svg PUBLIC "-//W3C//DTD SVG 20010904//EN"
 "http://www.w3.org/TR/2001/REC-SVG-20010904/DTD/svg10.dtd">
<svg version="1.0" xmlns="http://www.w3.org/2000/svg"
 width="256.000000pt" height="256.000000pt" viewBox="0 0 256.000000 256.000000"
 preserveAspectRatio="xMidYMid meet">

<g transform="translate(0.000000,256.000000) scale(0.100000,-0.100000)"
fill="#000000" stroke="none">
<path d="M1621 1705 c0 -11 6 -31 14 -45 18 -32 18 -25 0 25 -8 22 -14 31 -14
20z"/>
<path d="M1663 1460 c0 -30 2 -43 4 -27 2 15 2 39 0 55 -2 15 -4 2 -4 -28z"/>
<path d="M1643 1285 c-9 -20 -8 -25 3 -25 8 0 14 10 14 25 0 31 -2 31 -17 0z"/>
<path d="M1296 1273 c-6 -14 -5 -15 5 -6 7 7 10 15 7 18 -3 3 -9 -2 -12 -12z"/>
<path d="M1999 1180 c-3 -30 -7 -35 -29 -32 -23 2 -22 1 10 -23 40 -30 45 -23
32 45 l-9 45 -4 -35z"/>
<path d="M1041 1192 c-3 -45 -71 -92 -84 -59 -4 9 -6 9 -6 -1 -3 -42 77 -128
128 -138 l33 -7 -18 34 c-10 19 -26 68 -35 109 -10 41 -18 69 -18 62z"/>
<path d="M1325 910 c17 -4 44 -8 60 -8 l30 0 -30 8 c-16 4 -43 8 -60 8 l-30 0
30 -8z"/>
<path d="M2085 603 c-13 -52 -75 -175 -120 -239 -98 -137 -205 -217 -360 -267
-177 -58 -308 -70 -466 -42 -138 24 -234 67 -339 153 l-55 45 48 -49 c157
-165 461 -241 734 -185 225 47 373 165 492 392 39 76 87 207 78 215 -2 3 -8
-8 -12 -23z"/>
</g>
</svg>
