<?xml version="1.0" standalone="no"?>
<!DOCTYPE svg PUBLIC "-//W3C//DTD SVG 20010904//EN"
 "http://www.w3.org/TR/2001/REC-SVG-20010904/DTD/svg10.dtd">
<svg version="1.0" xmlns="http://www.w3.org/2000/svg"
 width="400.000000pt" height="400.000000pt" viewBox="0 0 400.000000 400.000000"
 preserveAspectRatio="xMidYMid meet">

<g transform="translate(0.000000,400.000000) scale(0.100000,-0.100000)"
fill="#000000" stroke="none">
<path d="M3077 3789 c4 -13 8 -18 11 -10 2 7 -1 18 -6 23 -8 8 -9 4 -5 -13z"/>
<path d="M3091 3734 c0 -11 3 -14 6 -6 3 7 2 16 -1 19 -3 4 -6 -2 -5 -13z"/>
<path d="M3102 3640 c0 -19 2 -27 5 -17 2 9 2 25 0 35 -3 9 -5 1 -5 -18z"/>
<path d="M3093 3255 c0 -27 2 -38 4 -22 2 15 2 37 0 50 -2 12 -4 0 -4 -28z"/>
<path d="M3084 2795 c0 -88 2 -123 3 -77 2 46 2 118 0 160 -1 42 -3 5 -3 -83z"/>
<path d="M2527 2689 c-6 -29 -2 -45 19 -84 15 -26 30 -61 34 -79 6 -23 8 -25
9 -9 1 12 -8 46 -20 75 -11 29 -24 71 -28 93 l-7 40 -7 -36z"/>
<path d="M761 2564 c0 -11 3 -14 6 -6 3 7 2 16 -1 19 -3 4 -6 -2 -5 -13z"/>
<path d="M771 2524 c0 -11 3 -14 6 -6 3 7 2 16 -1 19 -3 4 -6 -2 -5 -13z"/>
<path d="M782 2475 c0 -11 4 -31 8 -45 6 -20 8 -21 8 -5 0 11 -4 31 -8 45 -6
20 -8 21 -8 5z"/>
<path d="M2592 2460 c0 -19 2 -27 5 -17 2 9 2 25 0 35 -3 9 -5 1 -5 -18z"/>
<path d="M3092 2365 c0 -16 2 -22 5 -12 2 9 2 23 0 30 -3 6 -5 -1 -5 -18z"/>
<path d="M802 2360 c0 -14 2 -19 5 -12 2 6 2 18 0 25 -3 6 -5 1 -5 -13z"/>
<path d="M2591 2266 c-1 -66 1 -117 3 -115 9 10 14 167 6 199 -6 26 -8 3 -9
-84z"/>
<path d="M812 2285 c0 -16 2 -22 5 -12 2 9 2 23 0 30 -3 6 -5 -1 -5 -18z"/>
<path d="M2010 2175 c0 -27 3 -45 7 -42 7 8 6 77 -2 85 -3 3 -5 -16 -5 -43z"/>
<path d="M3107 2140 c3 -47 7 -87 9 -89 7 -8 3 83 -6 129 -6 33 -7 22 -3 -40z"/>
<path d="M1442 2170 c0 -19 2 -27 5 -17 2 9 2 25 0 35 -3 9 -5 1 -5 -18z"/>
<path d="M832 2150 c0 -14 2 -19 5 -12 2 6 2 18 0 25 -3 6 -5 1 -5 -13z"/>
<path d="M2580 2116 c0 -14 5 -26 10 -26 6 0 10 9 10 19 0 11 -4 23 -10 26 -6
4 -10 -5 -10 -19z"/>
<path d="M2022 2085 c0 -16 2 -22 5 -12 2 9 2 23 0 30 -3 6 -5 -1 -5 -18z"/>
<path d="M1452 2080 c0 -14 2 -19 5 -12 2 6 2 18 0 25 -3 6 -5 1 -5 -13z"/>
<path d="M2031 2045 c-1 -5 -5 -27 -10 -47 -5 -22 -5 -38 0 -38 5 0 9 8 10 18
0 10 3 12 6 5 2 -7 9 -13 14 -13 6 0 7 5 3 12 -4 6 -11 25 -15 42 -4 17 -8 27
-8 21z"/>
<path d="M2582 2029 c-1 -15 -9 -32 -17 -39 -23 -19 -18 -30 16 -30 24 0 29 3
21 13 -6 6 -12 28 -15 47 -3 26 -4 29 -5 9z"/>
<path d="M3126 1938 c3 -53 4 -108 0 -123 -7 -26 -10 -27 -48 -22 -45 6 -45 6
36 -53 l59 -43 -6 34 c-3 19 -13 92 -22 164 -9 71 -18 132 -21 135 -3 3 -2
-39 2 -92z"/>
<path d="M1451 1984 c0 -11 3 -14 6 -6 3 7 2 16 -1 19 -3 4 -6 -2 -5 -13z"/>
<path d="M854 1800 c0 -107 2 -151 3 -97 2 53 2 141 0 195 -1 53 -3 9 -3 -98z"/>
<path d="M1626 1852 c-11 -24 -34 -59 -52 -78 -28 -29 -37 -33 -53 -25 -10 6
-21 17 -25 26 -3 8 -11 15 -18 15 -8 0 -9 -3 -3 -8 6 -4 11 -18 13 -32 5 -46
94 -156 149 -184 31 -16 93 -22 93 -10 0 4 -9 22 -21 41 -29 46 -49 123 -57
218 l-7 80 -19 -43z"/>
<path d="M1460 1826 c0 -8 4 -17 9 -20 5 -4 7 3 4 14 -6 23 -13 26 -13 6z"/>
<path d="M861 1494 c0 -32 4 -79 9 -104 6 -31 7 -13 3 55 -6 111 -13 141 -12
49z"/>
<path d="M2024 1435 c50 -19 154 -29 186 -17 19 7 2 11 -75 16 -55 4 -111 9
-125 12 -14 2 -8 -2 14 -11z"/>
<path d="M882 1285 c-1 -22 3 -58 7 -80 8 -34 9 -36 9 -10 0 17 -3 53 -8 80
-7 49 -7 49 -8 10z"/>
<path d="M902 1110 c0 -19 2 -27 5 -17 2 9 2 25 0 35 -3 9 -5 1 -5 -18z"/>
<path d="M3305 1093 c-25 -136 -123 -359 -222 -506 -62 -91 -231 -277 -252
-277 -5 0 -22 -11 -38 -24 -78 -65 -320 -159 -508 -197 -302 -61 -665 -7 -895
134 -83 51 -197 144 -250 205 -29 32 -35 36 -19 13 93 -139 287 -286 464 -353
179 -68 276 -83 520 -83 198 1 216 2 320 29 249 65 425 173 566 346 144 176
263 429 314 663 9 43 15 81 12 83 -3 3 -8 -12 -12 -33z"/>
<path d="M911 1038 c-1 -25 11 -92 30 -168 7 -29 7 -27 3 15 -8 75 -31 184
-33 153z"/>
<path d="M956 775 c3 -27 10 -57 15 -65 9 -17 0 51 -13 90 -5 16 -6 7 -2 -25z"/>
<path d="M980 681 c0 -6 4 -13 10 -16 6 -3 7 1 4 9 -7 18 -14 21 -14 7z"/>
<path d="M1030 581 c0 -6 4 -13 10 -16 6 -3 7 1 4 9 -7 18 -14 21 -14 7z"/>
</g>
</svg>
